<?xml version="1.0" encoding="UTF-8"?>
<svg id="Layer_1" xmlns="http://www.w3.org/2000/svg" xmlns:xlink="http://www.w3.org/1999/xlink" version="1.1" viewBox="0 0 48 48">
  <!-- Generator: Adobe Illustrator 30.0.0, SVG Export Plug-In . SVG Version: 2.1.1 Build 123)  -->
  <defs>
    <style>
      .st0 {
        fill: url(#linear-gradient);
      }

      .st1, .st2 {
        fill: #fff;
      }

      .st2 {
        stroke: #fff;
        stroke-miterlimit: 10;
      }
    </style>
    <linearGradient id="linear-gradient" x1="3.81" y1="24" x2="44.19" y2="24" gradientUnits="userSpaceOnUse">
      <stop offset="0" stop-color="#eec6b6"/>
      <stop offset=".5" stop-color="#e4b988"/>
      <stop offset=".54" stop-color="#e3b785"/>
      <stop offset="1" stop-color="#dea96e"/>
    </linearGradient>
  </defs>
  <polygon class="st0" points="44.13 35.69 23.94 47.28 3.81 35.59 3.87 12.31 24.06 .72 44.19 12.41 44.13 35.69"/>
  <path class="st1" d="M30.31,20.37c-6.71-4.06-13.41-8.11-20.12-12.17,1.98-.97,3.96-1.95,5.93-2.92,6.78,3.83,13.56,7.66,20.34,11.49-2.05,1.2-4.1,2.4-6.16,3.6Z"/>
  <g>
    <polygon class="st1" points="30.82 20.54 35.96 17.62 35.96 29.82 30.82 32.65 30.82 20.54"/>
    <path class="st1" d="M35.46,18.48v11.04l-2.56,1.4-1.59.87v-10.97l4.15-2.35M36.46,16.77c-2.05,1.16-4.1,2.32-6.15,3.49v13.24c2.05-1.13,4.1-2.25,6.15-3.38v-13.35h0Z"/>
  </g>
  <path class="st2" d="M36.85,30.23"/>
  <path class="st1" d="M57.19,46.91"/>
</svg>