<?xml version="1.0" encoding="UTF-8"?>
<svg id="Layer_1" xmlns="http://www.w3.org/2000/svg" xmlns:xlink="http://www.w3.org/1999/xlink" version="1.1" viewBox="0 0 48 48">
    <!-- Generator: Adobe Illustrator 30.0.0, SVG Export Plug-In . SVG Version: 2.1.1 Build 123)  -->
    <defs>
        <style>
            .st0 {
            fill: url(#linear-gradient2);
            }

            .st1 {
            fill: url(#linear-gradient1);
            }

            .st2 {
            fill: url(#linear-gradient);
            }

            .st3 {
            fill: #fff;
            }
        </style>
        <linearGradient id="linear-gradient" x1="2.51" y1="18.46" x2="45.49" y2="18.46" gradientUnits="userSpaceOnUse">
            <stop offset="0" stop-color="#8fceea"/>
            <stop offset=".5" stop-color="#67bee1"/>
            <stop offset=".58" stop-color="#53b9dd"/>
            <stop offset=".87" stop-color="#17a9d3"/>
            <stop offset="1" stop-color="#00a4cf"/>
        </linearGradient>
        <linearGradient id="linear-gradient1" x1="26.81" y1="43.17" x2="26.81" y2="43.17" xlink:href="#linear-gradient"/>
        <linearGradient id="linear-gradient2" x1="2.5" y1="36.98" x2="28.64" y2="36.98" xlink:href="#linear-gradient"/>
    </defs>
    <path class="st2" d="M38.23,34.55c-3.47,0-6.94,0-10.42,0-6.02,0-12.03,0-18.05,0-.48,0-3.06-.05-5.14-2.13-.66-.66-1.19-1.44-1.56-2.31s-.57-1.82-.57-2.83V9.64c0-4.01,3.25-7.26,7.26-7.26h28.46c4.01,0,7.26,3.25,7.26,7.26v17.65c0,4.01-3.25,7.26-7.26,7.26Z"/>
    <path class="st1" d="M26.81,43.17"/>
    <circle class="st3" cx="13.17" cy="18.46" r="3.31"/>
    <circle class="st3" cx="24" cy="18.46" r="3.31"/>
    <circle class="st3" cx="34.83" cy="18.46" r="3.31"/>
    <path class="st0" d="M28.64,34.55c.02.1-11.38-1.11-18.61,5.26-3.76,3.31-4.83,7.24-6.18,6.83-.44-.13-1.25-.83-1.34-14.85-.01-1.9,0-3.47,0-4.51,0,0,.03.26.12.67,0,0,.18.9.44,1.61.39,1.09,2.05,2.48,2.72,2.88,3.69,2.23,22.83,1.98,22.85,2.1Z"/>
</svg>